<svg id="ff898ec0-20ea-4086-91d4-00e3da09684d" data-name="Capa 1" xmlns="http://www.w3.org/2000/svg" viewBox="0 0 512 512"><defs><style>.ff53c676-2727-485b-a0d0-9774bc53ca24{fill:#fff;}</style></defs><title>KeysARROWS</title><path class="ff53c676-2727-485b-a0d0-9774bc53ca24" d="M134.38,270H19.62A17.62,17.62,0,0,0,2,287.62V402.38A17.62,17.62,0,0,0,19.62,420H134.38A17.62,17.62,0,0,0,152,402.38V287.62A17.62,17.62,0,0,0,134.38,270ZM97.19,365.43a2.5,2.5,0,0,1-3.75,2.17L58.06,347.17a2.51,2.51,0,0,1,0-4.34L93.44,322.4a2.5,2.5,0,0,1,3.75,2.17Z"/><path class="ff53c676-2727-485b-a0d0-9774bc53ca24" d="M313.38,270H198.62A17.62,17.62,0,0,0,181,287.62V402.38A17.62,17.62,0,0,0,198.62,420H313.38A17.62,17.62,0,0,0,331,402.38V287.62A17.62,17.62,0,0,0,313.38,270ZM278.6,328.56l-20.43,35.38a2.51,2.51,0,0,1-4.34,0L233.4,328.56a2.5,2.5,0,0,1,2.17-3.75h40.86A2.5,2.5,0,0,1,278.6,328.56Z"/><path class="ff53c676-2727-485b-a0d0-9774bc53ca24" d="M492.38,270H377.62A17.62,17.62,0,0,0,360,287.62V402.38A17.62,17.62,0,0,0,377.62,420H492.38A17.62,17.62,0,0,0,510,402.38V287.62A17.62,17.62,0,0,0,492.38,270Zm-38.44,77.17L418.56,367.6a2.5,2.5,0,0,1-3.75-2.17V324.57a2.5,2.5,0,0,1,3.75-2.17l35.38,20.43A2.51,2.51,0,0,1,453.94,347.17Z"/><path class="ff53c676-2727-485b-a0d0-9774bc53ca24" d="M313.38,92H198.62A17.62,17.62,0,0,0,181,109.62V224.38A17.62,17.62,0,0,0,198.62,242H313.38A17.62,17.62,0,0,0,331,224.38V109.62A17.62,17.62,0,0,0,313.38,92Zm-36.95,95.19H235.57a2.5,2.5,0,0,1-2.17-3.75l20.43-35.38a2.51,2.51,0,0,1,4.34,0l20.43,35.38A2.5,2.5,0,0,1,276.43,187.19Z"/></svg>