<svg id="b19879c8-f8e5-4bff-b53c-e90fe3cd02e7" data-name="Capa 1" xmlns="http://www.w3.org/2000/svg" viewBox="0 0 512 512"><defs><style>.a6738644-74af-4c8f-a708-256b7165fc2e{fill:#fff;}</style></defs><title>KeysWASD</title><path class="a6738644-74af-4c8f-a708-256b7165fc2e" d="M313.38,92H198.62A17.62,17.62,0,0,0,181,109.62V224.38A17.62,17.62,0,0,0,198.62,242H313.38A17.62,17.62,0,0,0,331,224.38V109.62A17.62,17.62,0,0,0,313.38,92Zm-20.13,56.18-13.73,44.55a3.62,3.62,0,0,1-1,1.73,3,3,0,0,1-2.06.67h-6.24a3.21,3.21,0,0,1-2.07-.67,3.34,3.34,0,0,1-1.1-1.73l-10-30.34-10,30.34a4.44,4.44,0,0,1-1.1,1.73,3.1,3.1,0,0,1-2.16.67h-6.15a2.77,2.77,0,0,1-2-.67,5.68,5.68,0,0,1-1.15-1.73l-13.73-44.55a4,4,0,0,1-.1-.86,2.06,2.06,0,0,1,.62-1.49,2,2,0,0,1,1.4-.62h7.1a2.62,2.62,0,0,1,1.83.62,2.27,2.27,0,0,1,.76,1.2l9.41,31.78,10-31.49a3.38,3.38,0,0,1,.86-1.39,2.63,2.63,0,0,1,2-.72h4.8a2.63,2.63,0,0,1,2,.72,3.53,3.53,0,0,1,.87,1.39l10,31.49L281.73,147a2.29,2.29,0,0,1,.72-1.2,2.41,2.41,0,0,1,1.77-.62h7.11a2.12,2.12,0,0,1,2.11,2.11A2.28,2.28,0,0,1,293.25,148.18Z"/><polygon class="a6738644-74af-4c8f-a708-256b7165fc2e" points="66.82 348.55 88.62 348.55 77.67 318.89 66.82 348.55"/><path class="a6738644-74af-4c8f-a708-256b7165fc2e" d="M134.38,270H19.62A17.62,17.62,0,0,0,2,287.62V402.38A17.62,17.62,0,0,0,19.62,420H134.38A17.62,17.62,0,0,0,152,402.38V287.62A17.62,17.62,0,0,0,134.38,270ZM109,372.55a1.83,1.83,0,0,1-1.34.58H99.27a2.69,2.69,0,0,1-2-.63,3.18,3.18,0,0,1-.81-1.2L92,359.59H63.46L59,371.3a3.18,3.18,0,0,1-.81,1.2,2.69,2.69,0,0,1-2,.63H47.82a2,2,0,0,1-1.4-.58,1.88,1.88,0,0,1-.62-1.44,2.32,2.32,0,0,1,.19-.86l23.14-61.92a3.6,3.6,0,0,1,1.1-1.68,3.31,3.31,0,0,1,2.26-.72H83a3.11,3.11,0,0,1,2.21.72,4.59,4.59,0,0,1,1.15,1.68l23.14,61.92a4.75,4.75,0,0,1,.09.86A2,2,0,0,1,109,372.55Z"/><path class="a6738644-74af-4c8f-a708-256b7165fc2e" d="M313.38,270H198.62A17.62,17.62,0,0,0,181,287.62V402.38A17.62,17.62,0,0,0,198.62,420H313.38A17.62,17.62,0,0,0,331,402.38V287.62A17.62,17.62,0,0,0,313.38,270Zm-33.52,94.82a21.54,21.54,0,0,1-9.56,6.87,39.13,39.13,0,0,1-14.3,2.4q-8.92,0-14.93-2.64a21.91,21.91,0,0,1-9.12-6.91,16.17,16.17,0,0,1-3.31-9,1.92,1.92,0,0,1,.58-1.44,2,2,0,0,1,1.44-.58h8.54a2.86,2.86,0,0,1,1.87.53,5.44,5.44,0,0,1,1.11,1.3,9.71,9.71,0,0,0,2.2,3.6,12.28,12.28,0,0,0,4.47,2.93,19.25,19.25,0,0,0,7.15,1.15q6.92,0,10.32-2.31a7.16,7.16,0,0,0,3.41-6.24A5.77,5.77,0,0,0,267.9,350a16.92,16.92,0,0,0-5.61-3.07,97,97,0,0,0-10-2.93,55.32,55.32,0,0,1-12-4.18,18.18,18.18,0,0,1-7.3-6.19,17.06,17.06,0,0,1-2.45-9.5,16.81,16.81,0,0,1,3-9.89,20.26,20.26,0,0,1,8.64-6.82A32.86,32.86,0,0,1,255.52,305a33.35,33.35,0,0,1,11,1.68,24.41,24.41,0,0,1,8,4.41,21.05,21.05,0,0,1,4.85,5.86,13.83,13.83,0,0,1,1.77,6.1,2.16,2.16,0,0,1-.52,1.39,1.87,1.87,0,0,1-1.49.62h-8.93a3.5,3.5,0,0,1-1.54-.38,2.87,2.87,0,0,1-1.25-1.44,8,8,0,0,0-3.74-5.09,14.41,14.41,0,0,0-8.16-2.11,16,16,0,0,0-8.35,1.92,7.14,7.14,0,0,0-1.59,10.41,12.92,12.92,0,0,0,5.09,3.12,93.89,93.89,0,0,0,9.27,2.88,67.52,67.52,0,0,1,13.34,4.23,17.43,17.43,0,0,1,7.58,6.09,16.9,16.9,0,0,1,2.4,9.36A17.26,17.26,0,0,1,279.86,364.82Z"/><path class="a6738644-74af-4c8f-a708-256b7165fc2e" d="M445.9,320.71Q442.15,317,434,317h-11.9v45.12h12.38a21.07,21.07,0,0,0,8.74-1.54,9.75,9.75,0,0,0,4.94-4.94,22.31,22.31,0,0,0,1.68-9q.09-2.88.15-5t0-4.32c0-1.44-.09-3.09-.15-4.94Q449.64,324.46,445.9,320.71Z"/><path class="a6738644-74af-4c8f-a708-256b7165fc2e" d="M492.38,270H377.62A17.62,17.62,0,0,0,360,287.62V402.38A17.62,17.62,0,0,0,377.62,420H492.38A17.62,17.62,0,0,0,510,402.38V287.62A17.62,17.62,0,0,0,492.38,270Zm-29.11,76.92q-.19,8.93-3.26,14.74a19.14,19.14,0,0,1-9.27,8.63q-6.18,2.83-15.79,2.84h-23.9a2.3,2.3,0,0,1-2.31-2.31V308.33a2.34,2.34,0,0,1,.68-1.73,2.2,2.2,0,0,1,1.63-.67h23.42q9.7,0,16,3a20.6,20.6,0,0,1,9.5,8.84,30.06,30.06,0,0,1,3.31,14.3c.13,2.82.19,5.31.19,7.49S463.4,344.17,463.27,346.92Z"/></svg>